<svg width="20" height="13" viewBox="0 0 20 13" fill="none" xmlns="http://www.w3.org/2000/svg">
<g clip-path="url(#clip0_683_40576)">
<path fill-rule="evenodd" clip-rule="evenodd" d="M19.2 1.68138C19.2 1.04834 18.7224 0.535156 18.1333 0.535156H17.0667C16.4776 0.535156 16 1.04834 16 1.68138V11.6154C16 12.2484 16.4776 12.7616 17.0667 12.7616H18.1333C18.7224 12.7616 19.2 12.2484 19.2 11.6154V1.68138ZM11.7659 2.98044H12.8326C13.4217 2.98044 13.8992 3.50594 13.8992 4.15418V11.5879C13.8992 12.2361 13.4217 12.7616 12.8326 12.7616H11.7659C11.1768 12.7616 10.6992 12.2361 10.6992 11.5879V4.15418C10.6992 3.50594 11.1768 2.98044 11.7659 2.98044ZM7.43411 5.62949H6.36745C5.77834 5.62949 5.30078 6.16168 5.30078 6.81817V11.5729C5.30078 12.2294 5.77834 12.7616 6.36745 12.7616H7.43411C8.02322 12.7616 8.50078 12.2294 8.50078 11.5729V6.81817C8.50078 6.16168 8.02322 5.62949 7.43411 5.62949ZM2.13333 8.07478H1.06667C0.477563 8.07478 0 8.59937 0 9.24648V11.5899C0 12.237 0.477563 12.7616 1.06667 12.7616H2.13333C2.72244 12.7616 3.2 12.237 3.2 11.5899V9.24648C3.2 8.59937 2.72244 8.07478 2.13333 8.07478Z" fill="black"/>
</g>
<defs>
<clipPath id="clip0_683_40576">
<rect width="20" height="13" fill="white"/>
</clipPath>
</defs>
</svg>
