<svg width="18" height="13" viewBox="0 0 18 13" fill="none" xmlns="http://www.w3.org/2000/svg">
<g clip-path="url(#clip0_683_40574)">
<path fill-rule="evenodd" clip-rule="evenodd" d="M9.27052 3.103C11.7576 3.1031 14.1496 4.02518 15.9521 5.67866C16.0879 5.80632 16.3048 5.80471 16.4385 5.67505L17.736 4.41159C17.8037 4.34583 17.8414 4.25675 17.8409 4.16407C17.8403 4.07139 17.8015 3.98274 17.733 3.91775C13.002 -0.456959 5.53829 -0.456959 0.807275 3.91775C0.738743 3.9827 0.699859 4.07131 0.699227 4.16399C0.698595 4.25668 0.736267 4.34578 0.803908 4.41159L2.10177 5.67505C2.23537 5.8049 2.45249 5.80652 2.58814 5.67866C4.39088 4.02508 6.78317 3.10299 9.27052 3.103ZM9.26717 7.32327C10.6245 7.32319 11.9334 7.83493 12.9395 8.75906C13.0756 8.89021 13.2899 8.88737 13.4226 8.75265L14.7099 7.43334C14.7777 7.36414 14.8153 7.27026 14.8143 7.17271C14.8133 7.07516 14.7738 6.98208 14.7047 6.91429C11.6408 4.02344 6.8961 4.02344 3.83227 6.91429C3.76306 6.98208 3.72357 7.07521 3.72266 7.17279C3.72176 7.27037 3.7595 7.36424 3.82744 7.43334L5.11435 8.75265C5.247 8.88737 5.46136 8.89021 5.59745 8.75906C6.6029 7.83554 7.91074 7.32384 9.26717 7.32327ZM11.7916 10.1168C11.7935 10.2222 11.7565 10.3237 11.6892 10.3975L9.51249 12.8523C9.44868 12.9244 9.36169 12.965 9.27092 12.965C9.18015 12.965 9.09316 12.9244 9.02935 12.8523L6.85232 10.3975C6.78507 10.3237 6.74808 10.2221 6.75007 10.1167C6.75206 10.0114 6.79287 9.91162 6.86286 9.84101C8.25296 8.52711 10.2889 8.52711 11.679 9.84101C11.7489 9.91168 11.7897 10.0115 11.7916 10.1168Z" fill="black"/>
</g>
<defs>
<clipPath id="clip0_683_40574">
<rect width="18" height="13" fill="white"/>
</clipPath>
</defs>
</svg>
